# Blender v2.83.0 OBJ File: ''
# www.blender.org
o Cube_Cube.002
v 0.168352 -1.136997 -1.295722
v 1.680785 -0.241185 -0.341747
v -0.718188 -1.508054 0.458234
v 0.794245 -0.612243 1.412209
v -0.794245 0.612243 -1.412209
v 0.718188 1.508054 -0.458234
v -1.680785 0.241185 0.341747
v -0.168352 1.136997 1.295722
vn 0.4813 -0.8746 0.0582
vn -0.4433 -0.1855 0.8770
vn -0.4813 0.8746 -0.0582
vn 0.4433 0.1855 -0.8770
vn -0.7562 -0.4479 -0.4770
vn 0.7562 0.4479 0.4770
s off
f 2//1 3//1 1//1
f 4//2 7//2 3//2
f 8//3 5//3 7//3
f 6//4 1//4 5//4
f 7//5 1//5 3//5
f 4//6 6//6 8//6
f 2//1 4//1 3//1
f 4//2 8//2 7//2
f 8//3 6//3 5//3
f 6//4 2//4 1//4
f 7//5 5//5 1//5
f 4//6 2//6 6//6
